<?xml version="1.0" encoding="iso-8859-1"?>
<!-- Generator: Adobe Illustrator 19.0.0, SVG Export Plug-In . SVG Version: 6.00 Build 0)  -->
<svg version="1.1" id="Capa_1" xmlns="http://www.w3.org/2000/svg" xmlns:xlink="http://www.w3.org/1999/xlink" x="0px" y="0px"
	 viewBox="0 0 384 384" style="enable-background:new 0 0 384 384;" xml:space="preserve">
<g>
	<g>
		<path d="M312,43.248h-52.496V33.072c0-8.832-7.168-16-16-16h-9.744V16c0.008-8.832-7.16-16-15.992-16h-51.432
			c-8.824,0-15.968,7.136-16,15.952v1.128h-9.68c-8.832,0-16,7.168-16,16v10.176H72c-8.832,0-16,7.168-16,16V368
			c0,8.832,7.168,16,16,16h240c8.832,0,16-7.168,16-16V59.248C328,50.416,320.832,43.248,312,43.248z M156.656,49.072h9.544
			c0.024,0,0.048,0.008,0.08,0.008h51.488c0.024,0,0.048-0.008,0.08-0.008h9.664v10.176v10h-70.848v-10h-0.008V49.072z M296,352H88
			V75.248h36.656v10c0,8.832,7.168,16,16,16h102.848c8.832,0,16-7.168,16-16v-10H296V352z"/>
	</g>
</g>
<g>
	<g>
		<path d="M252.408,130.92H131.696c-8.832,0-16,7.168-16,16c0,8.832,7.168,16,16,16h120.712c8.832,0,16-7.168,16-16
			C268.408,138.088,261.24,130.92,252.408,130.92z"/>
	</g>
</g>
<g>
	<g>
		<path d="M252.408,183.808H131.696c-8.832,0-16,7.168-16,16s7.168,16,16,16h120.712c8.832,0,16-7.168,16-16
			C268.408,190.976,261.24,183.808,252.408,183.808z"/>
	</g>
</g>
<g>
	<g>
		<path d="M252.408,236.688H131.696c-8.832,0-16,7.168-16,16c0,8.832,7.168,16,16,16h120.712c8.832,0,16-7.168,16-16
			C268.408,243.856,261.24,236.688,252.408,236.688z"/>
	</g>
</g>
<g>
	<g>
		<path d="M252.408,289.568h-43.56c-8.832,0-16,7.168-16,16c0,8.832,7.168,16,16,16h43.56c8.832,0,16-7.168,16-16
			C268.408,296.736,261.24,289.568,252.408,289.568z"/>
	</g>
</g>
<g>
</g>
<g>
</g>
<g>
</g>
<g>
</g>
<g>
</g>
<g>
</g>
<g>
</g>
<g>
</g>
<g>
</g>
<g>
</g>
<g>
</g>
<g>
</g>
<g>
</g>
<g>
</g>
<g>
</g>
</svg>
