<svg id="_Capa_" data-name="&lt;Capa&gt;" xmlns="http://www.w3.org/2000/svg" viewBox="0 0 283.46 283.46"><defs><style>.cls-1{fill:#fff;}</style></defs><title>ICONOS</title><path class="cls-1" d="M248.86,271.08a8.88,8.88,0,0,1-2.22-.29L198,257.27a127.26,127.26,0,0,1-56.28,13A129.07,129.07,0,0,1,12.79,141.34c0-71.1,57.84-129,128.93-129a129.1,129.1,0,0,1,129,129,127.71,127.71,0,0,1-23.46,73.93L257,261a8.32,8.32,0,0,1-8.15,10.07ZM141.72,29a112.29,112.29,0,0,0,0,224.58A110.94,110.94,0,0,0,193.3,241a8.6,8.6,0,0,1,6.06-.64l38.48,10.69-7.69-35.92a8.33,8.33,0,0,1,1.47-6.72A112.13,112.13,0,0,0,141.72,29Z"/></svg>