<svg id="_Capa_" data-name="&lt;Capa&gt;" xmlns="http://www.w3.org/2000/svg" viewBox="0 0 283.46 283.46"><defs><style>.cls-1{fill:#fff;}</style></defs><title>ICONOS</title><g id="recycle-bin"><path id="_Trazado_compuesto_" data-name="&lt;Trazado compuesto&gt;" class="cls-1" d="M56.35,92.53a2.86,2.86,0,0,0-.73,1.92V256.27c0,8.34,9.24,15.19,20.11,15.19H206.38c10.87,0,21.46-6.85,21.46-15.19V94.45c0-.85-1.9-1.92-2.08-1.92Zm48.48,154.82A10.69,10.69,0,0,1,94.14,258H90.91a10.69,10.69,0,0,1-10.69-10.69V118.88a10.69,10.69,0,0,1,10.69-10.69h3.22a10.69,10.69,0,0,1,10.69,10.69Zm49.2,0A10.69,10.69,0,0,1,143.34,258h-3.22a10.69,10.69,0,0,1-10.69-10.69V118.88a10.69,10.69,0,0,1,10.69-10.69h3.22A10.69,10.69,0,0,1,154,118.88Zm49.21,0A10.69,10.69,0,0,1,192.55,258h-3.23a10.69,10.69,0,0,1-10.69-10.69V118.88a10.69,10.69,0,0,1,10.69-10.69h3.23a10.69,10.69,0,0,1,10.69,10.69Z"/><path id="_Trazado_compuesto_2" data-name="&lt;Trazado compuesto&gt;" class="cls-1" d="M230.69,34.37H180.87V24.81c0-7.16-5.31-12.8-12.47-12.8H115.51a12.8,12.8,0,0,0-12.92,12.8v9.56H53.23c-5.88,0-11,4.5-11,10.38V79.1H241.27V44.75A10.37,10.37,0,0,0,230.69,34.37Zm-58.76,0H113.77V30.13c0-5.32,2.92-9.18,8.38-9.18h39.62c5.46,0,10.16,3.85,10.16,9.18Z"/></g></svg>