<svg id="_Capa_" data-name="&lt;Capa&gt;" xmlns="http://www.w3.org/2000/svg" viewBox="0 0 283.46 283.46"><defs><style>.cls-1{fill:#fff;}</style></defs><title>ICONOS</title><path class="cls-1" d="M141.73,13.65A128.08,128.08,0,1,0,269.82,141.73,128.09,128.09,0,0,0,141.73,13.65ZM104.91,67.13h1.3q24.89,0,49.79,0a2.67,2.67,0,0,1,2.08.84q12.32,12.37,24.66,24.72a2.61,2.61,0,0,1,.78,1.6c.05,7.33,0,14.65,0,22,0,.23,0,.46-.06.8H104.91Zm74.2,146.4H109.22V164.18H179.1Zm39.46-44.69a15.25,15.25,0,0,1-1,5.44,12,12,0,0,1-1.63,3,13,13,0,0,1-11,5.36H184.59l-.61,0a.46.46,0,0,1-.43-.46c0-5.65,0-11.24,0-16.83,0-3.82-1.79-5.63-5.59-5.63H110.39c-3.76,0-5.57,1.79-5.58,5.52,0,5.65,0,11.3,0,17a.43.43,0,0,1-.43.43h0c-7.24,0-14.49.08-21.73,0a12.2,12.2,0,0,1-11-6.63,10.92,10.92,0,0,1-.63-1.36,18.31,18.31,0,0,1-1.19-6.6V135.81a17.8,17.8,0,0,1,.85-5.52,10.2,10.2,0,0,1,.63-1.54c2.6-5,6.87-7.27,12.47-7.26q25.71,0,51.42,0H204.5a14.33,14.33,0,0,1,7.19,1.63,12.07,12.07,0,0,1,3.6,3.43,17.1,17.1,0,0,1,3.27,10.13Z"/><rect class="cls-1" x="114.87" y="172.42" width="58.62" height="4.75"/><rect class="cls-1" x="114.87" y="181.93" width="58.62" height="4.75"/><rect class="cls-1" x="114.87" y="191.43" width="58.62" height="4.75"/><rect class="cls-1" x="114.87" y="200.94" width="58.62" height="4.75"/><circle class="cls-1" cx="198.55" cy="143.47" r="9.84"/></svg>