<svg id="_Capa_" data-name="&lt;Capa&gt;" xmlns="http://www.w3.org/2000/svg" viewBox="0 0 283.46 283.46"><defs><style>.cls-1{fill:#fff;}</style></defs><title>ICONOS</title><path class="cls-1" d="M268.36,125.88a30.67,30.67,0,0,1,.39,5V137a144.85,144.85,0,0,1-1.39,20.41,58.62,58.62,0,0,1-5.15,17.44,33,33,0,0,1-9.91,12.29q-6.15,4.56-15.66,4.56a77,77,0,0,1-11.89-1q-6.35-1-14.66-1.78l-20.21-2a107.78,107.78,0,0,0,2.57,22.39,106.37,106.37,0,0,1,2.58,22q0,11.89-6.14,18.63A38.63,38.63,0,0,1,174,260a76.86,76.86,0,0,1-18.23,4.56q-9.51,1.19-16.64,1.58a47.45,47.45,0,0,1-5.75.4h-4.56q-25,0-33.29-8.32t-8.33-25.36a141,141,0,0,1,1.39-19.22A150.44,150.44,0,0,0,90,193.25q0-5.54-2-5.75t-6.34-.2q-9.13,0-17.24.79t-16.05.79q-11.1,0-17.83-4.75a30.2,30.2,0,0,1-10.3-12.88,59.69,59.69,0,0,1-4.56-18.43q-1-10.3-1-21.4,0-15.85,3-25.17t7.93-13.67A23.5,23.5,0,0,1,37.3,87a79.58,79.58,0,0,1,13.87-1.19,141.87,141.87,0,0,1,19.22,1.39A131.2,131.2,0,0,0,88,88.63v-.79a128.82,128.82,0,0,0-2.18-22.19,124.4,124.4,0,0,1-2.18-21.4q0-8.32,2.18-13.47A18.11,18.11,0,0,1,93,22.44q5-3.17,13.67-4.36a166,166,0,0,1,21.8-1.19A229.68,229.68,0,0,1,157,18.68q14.26,1.78,23,6.14A24.76,24.76,0,0,1,188.7,31a23.64,23.64,0,0,1,4,6.54,16.64,16.64,0,0,1,1.19,5.75v4.16a137.36,137.36,0,0,1-2.18,23,140.66,140.66,0,0,0-2.18,23.78,72.32,72.32,0,0,0,18-2.78,87.58,87.58,0,0,1,22.39-2.77A66.1,66.1,0,0,1,245,90.21a21.45,21.45,0,0,1,6.34,2.18,22.73,22.73,0,0,1,6.94,5.75,40.28,40.28,0,0,1,6.14,10.7A65.07,65.07,0,0,1,268.36,125.88ZM231.1,160q2.38-2.77,4.56-12.29a90.62,90.62,0,0,0,2.18-20.21q0-10.3-1.58-15.65t-4-7.53a8.49,8.49,0,0,0-5.16-2.38q-2.78-.2-5.55-.2a90.51,90.51,0,0,0-23.38,3.17Q186.32,108.05,178,108q-11.5,0-15.46-6.54t-4-16.84q0-4.76.6-10.7t1.58-12.29q1-6.33,1.59-12.28t.6-10.7V37.1a23.33,23.33,0,0,0-7.14-3.17,68.32,68.32,0,0,0-11.69-2.38q-6.54-.79-13.87-1.39t-14.07-.59q-7.53,0-13.47.39t-5.94,4.76a139.17,139.17,0,0,0,2.18,24,124.32,124.32,0,0,1,2.18,20.41q0,13.88-6.74,18.23a29.24,29.24,0,0,1-16.25,4.36,109.27,109.27,0,0,1-16.84-1.39,115.1,115.1,0,0,0-17.64-1.39,30.46,30.46,0,0,0-8.72,1,8.21,8.21,0,0,0-4.75,3.57,14.36,14.36,0,0,0-1.78,6.94q-.2,4.37-.2,10.7,0,5.16.39,10.7t1,10.7a52.71,52.71,0,0,0,1.78,9.11,18.87,18.87,0,0,0,2.38,5.55q1.19,1.19,6.34,1.19A100.6,100.6,0,0,0,56.72,157,98.93,98.93,0,0,1,73,155.6q17,0,23.78,7.33t6.74,22a138.41,138.41,0,0,1-1.39,18.23,162.87,162.87,0,0,0-1.39,21.8q0,8.32,4.36,9.11a92.43,92.43,0,0,0,14.66.79q7.13,0,15.06-.4a91.11,91.11,0,0,0,14.47-1.78,42,42,0,0,0,10.7-3.57q4.16-2.17,4.16-5.75a133.39,133.39,0,0,0-2.58-26.55A107.84,107.84,0,0,1,159,176.21q0-11.49,5.74-15.66t16.05-4.16a126.93,126.93,0,0,1,21.2,2.18,143.54,143.54,0,0,0,24.77,2.18C228.86,160.75,230.31,160.5,231.1,160Z"/></svg>