<svg id="_Capa_" data-name="&lt;Capa&gt;" xmlns="http://www.w3.org/2000/svg" viewBox="0 0 283.46 283.46"><defs><style>.cls-1{fill:none;stroke:#fff;stroke-linecap:round;stroke-linejoin:round;stroke-width:11.95px;}</style></defs><title>ICONOS</title><path class="cls-1" d="M141.73,232.59a12,12,0,0,1-8.83-3.73L65.52,162.18a34.34,34.34,0,0,1-3.1-3c-1.33-1.4-3.46-4-6.35-7.67a103.51,103.51,0,0,1-7.78-11.44A74.05,74.05,0,0,1,42,125.51a55.61,55.61,0,0,1-2.81-17.05c0-17.74,5.17-31.93,15.39-42.16s24.34-15.43,42-15.43a48,48,0,0,1,15.51,2.69,60.9,60.9,0,0,1,14.32,7.1q6.25,4.22,10.75,7.93,2.35,1.93,4.6,4,2.24-2.07,4.61-4c3-2.46,6.58-5.1,10.75-7.92a60.69,60.69,0,0,1,14.31-7.1,48.39,48.39,0,0,1,15.52-2.69c17.63,0,31.75,5.19,42,15.43s15.39,24.42,15.39,42.16-8.87,35.94-26.37,53.87L150.49,229A12,12,0,0,1,141.73,232.59Z"/></svg>