<svg id="_Capa_" data-name="&lt;Capa&gt;" xmlns="http://www.w3.org/2000/svg" xmlns:xlink="http://www.w3.org/1999/xlink" viewBox="0 0 283.46 283.46"><defs><style>.cls-1,.cls-5{fill:none;stroke:#fff;stroke-linecap:round;stroke-linejoin:round;}.cls-1{stroke-width:3.07px;}.cls-2,.cls-3{fill:#fad98f;}.cls-3{fill-rule:evenodd;}.cls-4{clip-path:url(#clip-path);}.cls-5{stroke-width:1.53px;}.cls-6{fill:#fff;}</style><clipPath id="clip-path"><path class="cls-1" d="M207.09,159.54c0-7-6.18-14.59-15.57-18.26-6.42-2.5-13-2.64-18-.83-3-9.5-10.49-16.23-19.23-16.23a18,18,0,0,0-11.76,4.55,28.21,28.21,0,0,0-52.64,14.3A20.27,20.27,0,0,0,72,159.18a21.94,21.94,0,0,0,7.11,42.71l127-.15c11.17,0,20.23-9.43,20.23-21.11C226.35,169.28,217.81,160.06,207.09,159.54Z"/></clipPath></defs><title>ICONOS</title><path class="cls-2" d="M243.26,45.71H239v-.08H21.23v.08H12.36v213h230.9a27.93,27.93,0,0,0,27.84-27.84V73.56A27.93,27.93,0,0,0,243.26,45.71ZM205.1,56.46a7.7,7.7,0,1,1-7.7,7.7A7.7,7.7,0,0,1,205.1,56.46Zm-29.63,0a7.7,7.7,0,1,1-7.7,7.7A7.7,7.7,0,0,1,175.47,56.46Zm-29.63,0a7.7,7.7,0,1,1-7.7,7.7A7.7,7.7,0,0,1,145.84,56.46Zm-29.63,0a7.7,7.7,0,1,1-7.7,7.7A7.7,7.7,0,0,1,116.22,56.46Zm-29.63,0a7.7,7.7,0,1,1-7.7,7.7A7.7,7.7,0,0,1,86.59,56.46ZM57,56.46a7.7,7.7,0,1,1-7.7,7.7A7.7,7.7,0,0,1,57,56.46Z"/><path class="cls-3" d="M61.32,61.94A4.36,4.36,0,0,1,57,66.3h0a4.36,4.36,0,0,1-4.36-4.36V29.13A4.36,4.36,0,0,1,57,24.77h0a4.36,4.36,0,0,1,4.36,4.36Z"/><path class="cls-3" d="M90.94,61.94a4.36,4.36,0,0,1-4.36,4.36h0a4.36,4.36,0,0,1-4.36-4.36V29.13a4.36,4.36,0,0,1,4.36-4.36h0a4.36,4.36,0,0,1,4.36,4.36Z"/><path class="cls-3" d="M120.57,61.94a4.36,4.36,0,0,1-4.36,4.36h0a4.36,4.36,0,0,1-4.36-4.36V29.13a4.36,4.36,0,0,1,4.36-4.36h0a4.36,4.36,0,0,1,4.36,4.36Z"/><path class="cls-3" d="M150.2,61.94a4.36,4.36,0,0,1-4.36,4.36h0a4.36,4.36,0,0,1-4.36-4.36V29.13a4.36,4.36,0,0,1,4.36-4.36h0a4.36,4.36,0,0,1,4.36,4.36Z"/><path class="cls-3" d="M179.83,61.94a4.36,4.36,0,0,1-4.36,4.36h0a4.36,4.36,0,0,1-4.36-4.36V29.13a4.36,4.36,0,0,1,4.36-4.36h0a4.36,4.36,0,0,1,4.36,4.36Z"/><path class="cls-3" d="M209.46,61.94a4.36,4.36,0,0,1-4.36,4.36h0a4.36,4.36,0,0,1-4.36-4.36V29.13a4.36,4.36,0,0,1,4.36-4.36h0a4.36,4.36,0,0,1,4.36,4.36Z"/><g class="cls-4"><path class="cls-5" d="M231.12,200.77c-5.38-4.36-13.44-10.8-13.44-10.7h0l13.44,10.7Z"/><path class="cls-5" d="M231.12,190.17l-13.44-.1c0-.11,8.05,6.33,13.44,10.7Z"/><polygon class="cls-5" points="231.12 185.7 217.68 177.81 217.68 190.08 231.12 190.17 231.12 185.7"/><polygon class="cls-5" points="231.12 176.58 217.68 177.81 231.12 185.7 231.12 176.58"/><polygon class="cls-5" points="231.12 164.69 217.68 156.38 217.68 177.81 231.12 176.58 231.12 164.69"/><path class="cls-5" d="M111.27,198.61,95.06,184.53C95.2,184.9,111.27,198.61,111.27,198.61Z"/><polygon class="cls-5" points="149.15 194.03 130.89 195.24 166.83 192.93 149.15 194.03"/><polygon class="cls-5" points="207.43 196.79 187.66 209.36 217.68 190.08 207.43 196.79"/><polygon class="cls-5" points="165.47 178.43 149.15 194.03 178.58 165.91 165.47 178.43"/><path class="cls-5" d="M158.93,205.34l-28-10.1h0C131.42,195.69,158.93,205.34,158.93,205.34Z"/><path class="cls-5" d="M187.66,209.36s12.58-28.36,12.58-28.48Z"/><path class="cls-5" d="M180.27,219.53c-1.39-.95-22-14.42-21.35-14.18Z"/><path class="cls-5" d="M130.89,195.24l4.57,4.93c-2.6-2.82-4.41-4.78-4.56-4.92Z"/><path class="cls-5" d="M138.4,178.55l10.44-25.25h0C148.64,153.71,138.73,177.73,138.4,178.55Z"/><path class="cls-5" d="M88.62,158.46l-14-8.82h0c6.73,4.31,14,8.82,14,8.82Z"/><path class="cls-5" d="M57.46,138.53c.16.14,5.83,3.79,12.29,7.94Z"/><path class="cls-5" d="M180.33,219.44c-.32-1.6-4.12-15.08-4.12-15.08l4.12,15.09Z"/><path class="cls-5" d="M153.63,129.06c2,3.23,24.95,36.86,24.95,36.86l-24.95-36.86Z"/><path class="cls-5" d="M200.24,180.88l-21.66-15C179.17,166.44,200.24,180.88,200.24,180.88Z"/><polygon class="cls-5" points="111.23 135.78 148.83 153.3 127.61 143.33 111.23 135.78"/><polygon class="cls-5" points="148.83 153.3 178.58 165.91 166.82 160.92 148.83 153.3"/><polyline class="cls-5" points="164.51 98.86 178.58 165.91 170.08 125.41 164.51 98.86"/><path class="cls-5" d="M115.59,220.9l-1.25-6,1.23,6Z"/><polygon class="cls-5" points="207.08 214.46 207.08 214.46 217.68 190.08 207.08 214.46"/><polygon class="cls-5" points="94.47 119.99 111.23 135.78 94.52 120.03 94.47 119.99"/><path class="cls-5" d="M180.35,219.58s0-.07,0-.14h0Z"/><path class="cls-5" d="M130.9,195.25c.15.15,2,2.1,4.56,4.92l6.6,7.12s14.72,15.94,14.85,16.18l2-18.13S131.42,195.69,130.9,195.25Z"/><polyline class="cls-5" points="143.02 231.51 142.06 207.29 135.47 200.17 130.89 195.24 143.02 231.51"/><path class="cls-5" d="M122.29,231.51l13.64-21.05-24.66-11.84c0-.16,1.79,10.13,3.07,16.31l1.25,6,0,0,2.19,10.59"/><polygon class="cls-5" points="135.94 210.46 130.89 195.24 111.27 198.61 135.94 210.46"/><path class="cls-5" d="M114.34,214.92c-1.29-6.24-3.07-16.65-3.07-16.31l-10.76,16,15.06,6.3Z"/><path class="cls-5" d="M95.06,184.53l5.45,30.06,10.76-16S95.2,184.9,95.06,184.53Z"/><polygon class="cls-5" points="81.25 211.55 100.51 214.59 95.06 184.53 81.25 211.55"/><polygon class="cls-5" points="84.16 189.28 63.45 197.92 81.25 211.55 95.06 184.53 84.16 189.28"/><polygon class="cls-5" points="217.68 190.08 207.08 214.46 207.08 214.46 207.08 214.46 207.08 214.46 207.08 214.46 217.68 210.9 231.12 206.22 231.12 200.77 217.68 190.08"/><polygon class="cls-5" points="187.66 209.36 207.08 214.46 207.08 214.46 217.68 190.08 187.66 209.36"/><polygon class="cls-5" points="111.27 198.61 112.5 175.65 95.06 184.53 111.27 198.61"/><path class="cls-5" d="M66.59,175.53c.14.33-3.13,22.39-3.13,22.39l20.71-8.64,10.9-4.74Z"/><polygon class="cls-5" points="111.27 198.61 130.89 195.24 112.5 175.65 111.27 198.61"/><path class="cls-5" d="M180.33,219.44c0,.07,0,.13,0,.14,0,.37,7.31-10.22,7.31-10.22l-11.46-5S180,217.84,180.33,219.44Z"/><path class="cls-5" d="M200.24,180.88c0,.12-12.58,28.48-12.58,28.48l19.77-12.57Z"/><polygon class="cls-5" points="217.68 190.08 200.24 180.88 207.43 196.79 217.68 190.08"/><polygon class="cls-5" points="217.68 190.08 217.68 190.08 217.68 177.81 200.24 180.88 217.68 190.08 217.68 190.08"/><polygon class="cls-5" points="190.16 190.25 176.2 204.36 187.66 209.36 200.24 180.88 190.16 190.25"/><polygon class="cls-5" points="158.93 205.34 176.2 204.36 166.83 192.93 158.93 205.34"/><polygon class="cls-5" points="166.83 192.93 130.89 195.24 158.93 205.34 166.83 192.93"/><polygon class="cls-5" points="176.2 204.36 190.16 190.25 166.83 192.93 176.2 204.36"/><polygon class="cls-5" points="166.83 192.93 190.16 190.25 178.58 165.91 166.83 192.93"/><polygon class="cls-5" points="149.15 194.03 166.83 192.93 178.58 165.91 149.15 194.03"/><polygon class="cls-5" points="138.39 178.57 130.89 195.24 149.15 194.03 138.39 178.57"/><polygon class="cls-5" points="138.39 178.57 149.15 194.03 165.47 178.43 138.39 178.57"/><polygon class="cls-5" points="112.5 175.65 130.89 195.24 138.39 178.57 112.5 175.65"/><path class="cls-5" d="M190.16,190.25l10.08-9.37s-21.07-14.44-21.66-15Z"/><path class="cls-5" d="M200.24,180.88s2-31.47,2-32l-23.67,17Z"/><path class="cls-5" d="M200.24,180.88l17.44-24.5-15.43-7.46C202.25,149.41,200.24,180.88,200.24,180.88Z"/><polygon class="cls-5" points="217.68 177.81 217.68 177.81 217.68 156.38 217.68 156.38 200.24 180.88 217.68 177.81"/><path class="cls-5" d="M66.59,175.53l-14.24-.19v14.94l11.11,7.64S66.72,175.85,66.59,175.53Z"/><polygon class="cls-5" points="52.35 175.34 66.59 175.53 53.09 167.12 53.09 167.12 52.35 175.34"/><polygon class="cls-5" points="53.09 167.12 66.59 175.53 88.62 158.46 53.09 167.12"/><polygon class="cls-5" points="55.82 150.22 53.09 167.12 53.09 167.12 88.62 158.46 55.82 150.22"/><path class="cls-5" d="M88.62,158.46s-7.27-4.51-14-8.82h0l-4.87-3.17c-6.46-4.14-12.14-7.8-12.29-7.94l-1.63,11.68Z"/><polygon class="cls-5" points="88.62 158.46 88.62 158.46 66.59 175.53 95.06 184.53 88.62 158.46"/><path class="cls-5" d="M148.83,153.3,138.4,178.55v0l27.08-.14,13.11-12.52Z"/><polygon class="cls-5" points="202.25 148.92 195.34 121.98 178.58 165.91 202.25 148.92"/><polygon class="cls-5" points="104.33 142.75 88.62 158.46 88.62 158.46 88.62 158.46 95.06 184.53 111.23 135.78 104.33 142.75"/><path class="cls-5" d="M153.63,129.06Z"/><polygon class="cls-5" points="88.62 158.46 104.33 142.75 68.25 145.51 88.62 158.46 88.62 158.46"/><polygon class="cls-5" points="95.06 184.53 112.5 175.65 111.23 135.78 95.06 184.53"/><path class="cls-5" d="M148.83,153.3,112.5,175.65l25.89,2.92v0C138.73,177.73,148.64,153.71,148.83,153.3Z"/><path class="cls-5" d="M153.63,129.06h0s-.07-.14,0,0Z"/><path class="cls-5" d="M153.63,129.06h0c-.07-.14,0,0,0,0l-4.8,24.24h0l18,7.63,11.76,5S155.63,132.28,153.63,129.06Z"/><polygon class="cls-5" points="148.83 153.3 148.83 153.3 111.23 135.78 112.5 175.65 148.83 153.3 148.83 153.3"/><polyline class="cls-5" points="164.51 98.86 153.63 129.06 178.58 165.91 164.51 98.86"/><polygon class="cls-5" points="68.08 134.64 68.25 145.51 104.33 142.75 68.08 134.64"/><polygon class="cls-5" points="111.23 135.78 68.08 134.64 104.33 142.75 111.23 135.78"/><polygon class="cls-5" points="178.58 165.91 195.34 121.98 170.08 125.41 178.58 165.91"/><path class="cls-5" d="M148.83,153.3h0l4.8-24.24-26,14.27Z"/><polyline class="cls-5" points="68.08 134.64 111.23 135.78 94.47 119.99"/><polyline class="cls-5" points="123.4 100.81 111.23 135.78 153.63 129.06 123.4 100.81"/><polygon class="cls-5" points="127.61 143.33 153.63 129.06 111.23 135.78 127.61 143.33"/><polyline class="cls-5" points="123.4 100.81 94.52 120.03 111.23 135.78 123.4 100.81"/><line class="cls-5" x1="94.52" y1="120.03" x2="123.4" y2="100.81"/><polyline class="cls-5" points="123.4 100.81 164.51 98.86 153.63 129.06 123.4 100.81"/><circle class="cls-6" cx="111.23" cy="135.77" r="1.54"/><circle class="cls-6" cx="127.53" cy="143.33" r="1.54"/><circle class="cls-6" cx="148.83" cy="153.3" r="1.54"/><circle class="cls-6" cx="88.62" cy="158.46" r="1.54"/><circle class="cls-6" cx="178.58" cy="165.91" r="1.54"/><circle class="cls-6" cx="200.24" cy="180.88" r="1.54"/><circle class="cls-6" cx="138.4" cy="178.55" r="1.54"/><circle class="cls-6" cx="149.15" cy="194.09" r="1.54"/><circle class="cls-6" cx="202.25" cy="148.92" r="1.54"/><circle class="cls-6" cx="66.59" cy="175.53" r="1.54"/><circle class="cls-6" cx="95.06" cy="184.53" r="1.54"/><circle class="cls-6" cx="112.5" cy="175.65" r="1.54"/><circle class="cls-6" cx="153.64" cy="129.03" r="1.54"/><circle class="cls-6" cx="104.33" cy="142.75" r="1.54"/><circle class="cls-6" cx="190.16" cy="190.25" r="1.54"/><circle class="cls-6" cx="130.9" cy="195.25" r="1.54"/><circle class="cls-6" cx="166.83" cy="192.93" r="1.54"/><circle class="cls-6" cx="217.73" cy="177.81" r="1.54"/><circle class="cls-6" cx="217.68" cy="190.08" r="1.54"/><circle class="cls-6" cx="207.43" cy="196.79" r="1.54"/><circle class="cls-6" cx="111.27" cy="198.61" r="1.54"/><circle class="cls-6" cx="165.47" cy="178.43" r="1.54"/></g><path class="cls-1" d="M207.09,159.54c0-7-6.18-14.59-15.57-18.26-6.42-2.5-13-2.64-18-.83-3-9.5-10.49-16.23-19.23-16.23a18,18,0,0,0-11.76,4.55,28.21,28.21,0,0,0-52.64,14.3A20.27,20.27,0,0,0,72,159.18a21.94,21.94,0,0,0,7.11,42.71l127-.15c11.17,0,20.23-9.43,20.23-21.11C226.35,169.28,217.81,160.06,207.09,159.54Z"/></svg>