<svg id="_Capa_" data-name="&lt;Capa&gt;" xmlns="http://www.w3.org/2000/svg" viewBox="0 0 283.46 283.46"><defs><style>.cls-1{fill:#fff;}</style></defs><title>ICONOS</title><path class="cls-1" d="M84,137.78c-.12.08-27.82,36.22-46.83,62.32l0,0s-25,33.44-23.36,35.39,30.22-4.33,39.11-6.38c32-7,78.63-18.31,78.75-18.39l137.88-90.12c.85-.56-1.38-5.46-5-10.94L244.92,79.54l-.91-1.4h0l-.36-.55-3.85-5.9h0L229.93,56.6c-3.58-5.48-7.18-9.49-8-8.94ZM57.5,223.67,41,200.5c17.12-21.32,41.08-51.82,41.08-51.82l42.63,59.22C120.16,208.95,57.5,223.67,57.5,223.67ZM248.77,98.13l-134,86.81L98.2,159.72l134-86.81Z"/></svg>