<svg id="_Capa_" data-name="&lt;Capa&gt;" xmlns="http://www.w3.org/2000/svg" viewBox="0 0 283.46 283.46"><defs><style>.cls-1{fill:#fff;}</style></defs><title>ICONOS</title><path class="cls-1" d="M233.74,207.76S233.45,247,194.16,247H167.94V187.87s.16-26.2-26-26.2-26,26.2-26,26.2V247H89.38s-39.29,0-39.29-39.26V157.5l17.46-13.4,74.23-57,74.36,57,17.61,13.4Zm18.35-56.2L141.77,64.13,31.44,151.56A12.16,12.16,0,0,1,16.33,132.5L134.21,39.07a12.15,12.15,0,0,1,15.11,0l21.15,16.58a10.23,10.23,0,0,1,10-9.64h26c5.57,0,9.9,4.87,9.9,10.45V92.38L267.1,132.5a12.13,12.13,0,1,1-15,19.06Z"/></svg>