<svg id="_Capa_" data-name="&lt;Capa&gt;" xmlns="http://www.w3.org/2000/svg" viewBox="0 0 283.46 283.46"><defs><style>.cls-1{fill:#fff;}</style></defs><title>ICONOS</title><path class="cls-1" d="M255.3,57a5.15,5.15,0,0,0,.16-1.75c0-.24.12-.46.06-.7a5.44,5.44,0,0,0-1.05-2c-.06-.07,0-.17-.09-.25s-.26-.11-.36-.21a5.82,5.82,0,0,0-2.83-1.69l-.18,0a3.77,3.77,0,0,0-1-.14L33.59,51.61a5.69,5.69,0,0,0-4,9.68l71.11,72.41L108.43,228A5.69,5.69,0,0,0,118.57,231L254.45,59.52c.16-.19.1-.46.23-.66A5.22,5.22,0,0,0,255.3,57Zm-28.76,4.77L122,116.47l-14.76,7.72L47.11,62.91ZM112.17,134.49l58.71-30.7,58-30.34L118.6,212.65Z"/></svg>