<svg id="_Capa_" data-name="&lt;Capa&gt;" xmlns="http://www.w3.org/2000/svg" viewBox="0 0 283.46 283.46"><defs><style>.cls-1{fill:#686868;}</style></defs><title>ICONOS</title><g id="grid-2"><rect id="_Trazado_" data-name="&lt;Trazado&gt;" class="cls-1" x="10.27" y="18.22" width="74.21" height="74.21" rx="10.04" ry="10.04"/><rect id="_Trazado_2" data-name="&lt;Trazado&gt;" class="cls-1" x="103.57" y="18.22" width="74.21" height="74.21" rx="10.04" ry="10.04"/><rect id="_Trazado_3" data-name="&lt;Trazado&gt;" class="cls-1" x="198.98" y="18.22" width="74.21" height="74.21" rx="10.04" ry="10.04"/><path id="_Trazado_4" data-name="&lt;Trazado&gt;" class="cls-1" d="M84.48,119.42a10,10,0,0,0-10-10H20.31a10,10,0,0,0-10,10v54.14a10,10,0,0,0,10,10H74.45a10,10,0,0,0,10-10Z"/><path id="_Trazado_5" data-name="&lt;Trazado&gt;" class="cls-1" d="M177.78,119.42a10,10,0,0,0-10-10H113.6a10,10,0,0,0-10,10v54.14a10,10,0,0,0,10,10h54.14a10,10,0,0,0,10-10Z"/><path id="_Trazado_6" data-name="&lt;Trazado&gt;" class="cls-1" d="M273.19,119.42a10,10,0,0,0-10-10H209a10,10,0,0,0-10,10v54.14a10,10,0,0,0,10,10h54.14a10,10,0,0,0,10-10Z"/><rect id="_Trazado_7" data-name="&lt;Trazado&gt;" class="cls-1" x="10.27" y="202.68" width="74.21" height="74.21" rx="10.04" ry="10.04"/><rect id="_Trazado_8" data-name="&lt;Trazado&gt;" class="cls-1" x="103.57" y="202.68" width="74.21" height="74.21" rx="10.04" ry="10.04"/><rect id="_Trazado_9" data-name="&lt;Trazado&gt;" class="cls-1" x="198.98" y="202.68" width="74.21" height="74.21" rx="10.04" ry="10.04"/></g></svg>