<svg id="_Capa_" data-name="&lt;Capa&gt;" xmlns="http://www.w3.org/2000/svg" viewBox="0 0 283.46 283.46"><defs><style>.cls-1,.cls-2{fill:#f9b985;}.cls-2{fill-rule:evenodd;}.cls-3{fill:#fff;}</style></defs><title>ICONOS</title><path class="cls-1" d="M243.26,45.71H239v-.08H21.23v.08H12.36v213h230.9a27.93,27.93,0,0,0,27.84-27.84V73.56A27.93,27.93,0,0,0,243.26,45.71ZM205.1,56.46a7.7,7.7,0,1,1-7.7,7.7A7.7,7.7,0,0,1,205.1,56.46Zm-29.63,0a7.7,7.7,0,1,1-7.7,7.7A7.7,7.7,0,0,1,175.47,56.46Zm-29.63,0a7.7,7.7,0,1,1-7.7,7.7A7.7,7.7,0,0,1,145.84,56.46Zm-29.63,0a7.7,7.7,0,1,1-7.7,7.7A7.7,7.7,0,0,1,116.22,56.46Zm-29.63,0a7.7,7.7,0,1,1-7.7,7.7A7.7,7.7,0,0,1,86.59,56.46ZM57,56.46a7.7,7.7,0,1,1-7.7,7.7A7.7,7.7,0,0,1,57,56.46Z"/><path class="cls-2" d="M61.32,61.94A4.36,4.36,0,0,1,57,66.3h0a4.36,4.36,0,0,1-4.36-4.36V29.13A4.36,4.36,0,0,1,57,24.77h0a4.36,4.36,0,0,1,4.36,4.36Z"/><path class="cls-2" d="M90.94,61.94a4.36,4.36,0,0,1-4.36,4.36h0a4.36,4.36,0,0,1-4.36-4.36V29.13a4.36,4.36,0,0,1,4.36-4.36h0a4.36,4.36,0,0,1,4.36,4.36Z"/><path class="cls-2" d="M120.57,61.94a4.36,4.36,0,0,1-4.36,4.36h0a4.36,4.36,0,0,1-4.36-4.36V29.13a4.36,4.36,0,0,1,4.36-4.36h0a4.36,4.36,0,0,1,4.36,4.36Z"/><path class="cls-2" d="M150.2,61.94a4.36,4.36,0,0,1-4.36,4.36h0a4.36,4.36,0,0,1-4.36-4.36V29.13a4.36,4.36,0,0,1,4.36-4.36h0a4.36,4.36,0,0,1,4.36,4.36Z"/><path class="cls-2" d="M179.83,61.94a4.36,4.36,0,0,1-4.36,4.36h0a4.36,4.36,0,0,1-4.36-4.36V29.13a4.36,4.36,0,0,1,4.36-4.36h0a4.36,4.36,0,0,1,4.36,4.36Z"/><path class="cls-2" d="M209.46,61.94a4.36,4.36,0,0,1-4.36,4.36h0a4.36,4.36,0,0,1-4.36-4.36V29.13a4.36,4.36,0,0,1,4.36-4.36h0a4.36,4.36,0,0,1,4.36,4.36Z"/><path class="cls-3" d="M200.86,187.37a18.54,18.54,0,0,0-2.18-12.25,15.57,15.57,0,0,0-1.15-1.7c.21-.43.41-.86.59-1.3a26.56,26.56,0,0,0,1.65-7.31,55.22,55.22,0,0,0,.38-8.88c-.28-5.67.14-11.21-1.74-16.67a32.75,32.75,0,0,0-3.31-7.06l.26-.27a12.7,12.7,0,0,0,3.43-8.37c.15-3.15-.07-6.52-1.66-9.32a16.73,16.73,0,0,0-1.35-2l.13-.15a14.25,14.25,0,0,0,2.3-3.13c4.76-9.8-4.7-22.94-15.67-20.85a28.28,28.28,0,0,0-10.29,4.44c-.36.26-.72.53-1.07.81a21.43,21.43,0,0,0-8.63-2.05,24.5,24.5,0,0,0-9.31,1.86,19.88,19.88,0,0,0-1.86-.93,35.59,35.59,0,0,0-12.83-3.44,38.21,38.21,0,0,0-12.68,1.31,22.4,22.4,0,0,0-6.93,3.42,7.5,7.5,0,0,0-3.59-1,8.22,8.22,0,0,0-4.7,1.62,12.17,12.17,0,0,0-2.59-1.85c-2.73-1.42-5.55-2.61-8.68-2.21a17.37,17.37,0,0,0-13,9.09c-3,5.51-1.22,10.11,2.35,15.21-.62,2.11-1.56,6.13-1.32,8.19a15.32,15.32,0,0,0,1.1,4.16A15.1,15.1,0,0,0,87.06,129c-4.07,8.72-1.21,17.15.39,20.35.27.54.55,1.1.85,1.66-.68,2.13-5.91,2.54-5.94,14.58,0,8.33,4.42,15.63,4.49,16.06-6.41,13.9.49,23.5.36,24.18-.91,4.56-.71,9.68,2.15,13.54a13,13,0,0,0,5.37,4c4,1.79,9.9,2,13.48-1,.33-.27.69-.58,1.06-.92a10.6,10.6,0,0,0,2.71.75,9.64,9.64,0,0,0,5.94-1.14,21.88,21.88,0,0,0,4.48,1.84,23.46,23.46,0,0,0,5,1.2,23.18,23.18,0,0,0,10.2-2,15,15,0,0,0,3.83-2.2,24,24,0,0,0,8.91,2.66,19.72,19.72,0,0,0,9.89-1A11.5,11.5,0,0,0,164,219a27.92,27.92,0,0,0,5.75,3.76,25.68,25.68,0,0,0,9.07,2.42c5.86.48,12-1,15.89-5.2a16.77,16.77,0,0,0,3.75-7.52,25,25,0,0,0,.25-9.32,11.23,11.23,0,0,0-1.35-3.65l-.09-.15a6.25,6.25,0,0,0,1.5-2.25c.43-1.15-.9-3-1.31-4.24C197.27,192.36,200.31,190.79,200.86,187.37Zm-12.49-6.27c-.44,2.73-2.86,4-2.74,4.34.33,1,1.38,2.46,1,3.37a5,5,0,0,1-1.19,1.8l.07.12a8.92,8.92,0,0,1,1.07,2.91,19.89,19.89,0,0,1-.2,7.42,13.35,13.35,0,0,1-3,6c-3.11,3.36-8,4.52-12.66,4.14a20.52,20.52,0,0,1-7.23-1.93,22.28,22.28,0,0,1-4.58-3,9.15,9.15,0,0,1-3,2.11,15.72,15.72,0,0,1-7.88.78A19.11,19.11,0,0,1,141,207a12,12,0,0,1-3.05,1.75,18.43,18.43,0,0,1-8.12,1.6,18.72,18.72,0,0,1-4-1,17.42,17.42,0,0,1-3.57-1.46,7.68,7.68,0,0,1-4.73.91,8.49,8.49,0,0,1-2.16-.6c-.3.27-.59.52-.85.73-2.85,2.39-7.51,2.22-10.73.79a10.32,10.32,0,0,1-4.28-3.22c-2.28-3.08-2.44-7.16-1.71-10.79.11-.54-5.39-8.19-.29-19.26-.05-.34-3.59-6.16-3.57-12.79,0-9.59,4.19-9.91,4.73-11.61-.24-.45-.46-.89-.67-1.32a19.27,19.27,0,0,1-.31-16.21,12,12,0,0,1,1.18-1.85,12.16,12.16,0,0,1-.88-3.31c-.19-1.64.56-4.85,1.05-6.53-2.84-4.06-4.27-7.73-1.87-12.11a13.84,13.84,0,0,1,10.32-7.24c2.49-.31,4.75.63,6.92,1.77a9.69,9.69,0,0,1,2.06,1.47,6.54,6.54,0,0,1,3.74-1.29,6,6,0,0,1,2.86.82,17.85,17.85,0,0,1,5.52-2.72,30.41,30.41,0,0,1,10.1-1,28.32,28.32,0,0,1,10.22,2.74,15.77,15.77,0,0,1,1.48.74,19.51,19.51,0,0,1,7.41-1.48,17.07,17.07,0,0,1,6.87,1.64c.28-.22.57-.44.86-.65a22.51,22.51,0,0,1,8.19-3.54c8.74-1.67,16.27,8.8,12.48,16.61a11.33,11.33,0,0,1-1.83,2.5l-.1.12a13.06,13.06,0,0,1,1.07,1.6,13.61,13.61,0,0,1,1.33,7.42,10.13,10.13,0,0,1-2.73,6.67l-.21.21a26.16,26.16,0,0,1,2.64,5.63c1.5,4.35,1.17,8.76,1.39,13.28a44,44,0,0,1-.3,7.08,21.2,21.2,0,0,1-1.32,5.82c-.15.35-.31.7-.47,1a12.35,12.35,0,0,1,.92,1.36A14.77,14.77,0,0,1,188.37,181.1Z"/></svg>