<svg id="_Capa_" data-name="&lt;Capa&gt;" xmlns="http://www.w3.org/2000/svg" viewBox="0 0 283.46 283.46"><defs><style>.cls-1{fill:#fff;}</style></defs><title>ICONOS</title><path class="cls-1" d="M141.73,22.66C77.44,22.66,25.31,76,25.31,141.73S77.44,260.8,141.73,260.8s116.42-53.31,116.42-119.07S206,22.66,141.73,22.66Zm52,53V224.43H79.19V120.79L131,68.49h62.69Z"/><path class="cls-1" d="M127,168.95a.49.49,0,0,0,.46.32q2,0,5.54-3.74a11.39,11.39,0,0,0,3.51-7.86q0-3.66-3.75-6.2a11.72,11.72,0,0,0-6.09-1.91c-.62,0-.93.16-.93.48q-.16,3.5.78,17.32Z"/><path class="cls-1" d="M132.94,123.21l-46.68,0v94H186.61V75.69H132.84Zm21.83,13.64q10.77,7.31,10.77,21.29,0,16.2-15.92,21.12a45,45,0,0,1-15.76,1.59q1.25,4.13,4.68,14.78A14.24,14.24,0,0,1,139,199q0,4.92-9.05,8.89-9.83,4.29-12.95,4.29-4.37,0-5.31-4.76-1.4-5.88-2.81-22.24-1.56-18.74-1.56-34.94,0-9.69.62-17.16.47-4.77,5.78-4.77a27.25,27.25,0,0,1,4.06.4,27.81,27.81,0,0,0,3.12.39q12.79.64,13.26.63Q147,131.46,154.77,136.85Z"/></svg>