<svg id="_Capa_" data-name="&lt;Capa&gt;" xmlns="http://www.w3.org/2000/svg" viewBox="0 0 283.46 283.46"><defs><style>.cls-1,.cls-2{fill:#bddf8b;}.cls-2{fill-rule:evenodd;}.cls-3{fill:#fff;}</style></defs><title>ICONOS</title><path class="cls-1" d="M243.26,45.71H239v-.08H21.23v.08H12.36v213h230.9a27.93,27.93,0,0,0,27.84-27.84V73.56A27.93,27.93,0,0,0,243.26,45.71ZM205.1,56.46a7.7,7.7,0,1,1-7.7,7.7A7.7,7.7,0,0,1,205.1,56.46Zm-29.63,0a7.7,7.7,0,1,1-7.7,7.7A7.7,7.7,0,0,1,175.47,56.46Zm-29.63,0a7.7,7.7,0,1,1-7.7,7.7A7.7,7.7,0,0,1,145.84,56.46Zm-29.63,0a7.7,7.7,0,1,1-7.7,7.7A7.7,7.7,0,0,1,116.22,56.46Zm-29.63,0a7.7,7.7,0,1,1-7.7,7.7A7.7,7.7,0,0,1,86.59,56.46ZM57,56.46a7.7,7.7,0,1,1-7.7,7.7A7.7,7.7,0,0,1,57,56.46Z"/><path class="cls-2" d="M61.32,61.94A4.36,4.36,0,0,1,57,66.3h0a4.36,4.36,0,0,1-4.36-4.36V29.13A4.36,4.36,0,0,1,57,24.77h0a4.36,4.36,0,0,1,4.36,4.36Z"/><path class="cls-2" d="M90.94,61.94a4.36,4.36,0,0,1-4.36,4.36h0a4.36,4.36,0,0,1-4.36-4.36V29.13a4.36,4.36,0,0,1,4.36-4.36h0a4.36,4.36,0,0,1,4.36,4.36Z"/><path class="cls-2" d="M120.57,61.94a4.36,4.36,0,0,1-4.36,4.36h0a4.36,4.36,0,0,1-4.36-4.36V29.13a4.36,4.36,0,0,1,4.36-4.36h0a4.36,4.36,0,0,1,4.36,4.36Z"/><path class="cls-2" d="M150.2,61.94a4.36,4.36,0,0,1-4.36,4.36h0a4.36,4.36,0,0,1-4.36-4.36V29.13a4.36,4.36,0,0,1,4.36-4.36h0a4.36,4.36,0,0,1,4.36,4.36Z"/><path class="cls-2" d="M179.83,61.94a4.36,4.36,0,0,1-4.36,4.36h0a4.36,4.36,0,0,1-4.36-4.36V29.13a4.36,4.36,0,0,1,4.36-4.36h0a4.36,4.36,0,0,1,4.36,4.36Z"/><path class="cls-2" d="M209.46,61.94a4.36,4.36,0,0,1-4.36,4.36h0a4.36,4.36,0,0,1-4.36-4.36V29.13a4.36,4.36,0,0,1,4.36-4.36h0a4.36,4.36,0,0,1,4.36,4.36Z"/><path class="cls-3" d="M192.19,108.41q1.23,18.15-4.52,44.64-4.34,4.67-18.76,10c-.72-.22-1.07-.53-1-.94q.75-16-3.75-18.66t-7.52-2.69q-1.41,25.64-2.24,44.71t-.82,21.8q0,3.87,8.53,5.23,3.49,0,4.95,3.58-.42,13.48-2.45,13.48a447.3,447.3,0,0,0-54.06,1.84q-1.51,0-2.5-12.4,0-5.23,4.15-5.23,10.37-1.65,12.54-6.27.52-5.28.66-27.29t0-29.53q-.1-7.52-1.32-7.52-6.69.61-12.35,6.32-1.46,1.84-2.22,8.25-.85,3.54-5.75,4.43Q93.59,164.88,93,163q.33-25.64-1.89-51.47-.8-5.23,20.41-7.73A243.07,243.07,0,0,1,149.7,102q17,.71,29.13,1.67T192.19,108.41Z"/></svg>