<svg id="_Capa_" data-name="&lt;Capa&gt;" xmlns="http://www.w3.org/2000/svg" viewBox="0 0 283.46 283.46"><defs><style>.cls-1{fill:#6d72ad;}</style></defs><title>ICONOS</title><path class="cls-1" d="M207.74,40.39c18.11,0,32.79,14,32.79,31.2a30.6,30.6,0,0,1-12.26,24.32,34.17,34.17,0,0,1-37.55,2.34,46.78,46.78,0,0,0-2.09-5.65,48.24,48.24,0,0,0-10.9-15.39q-1.26-1.19-2.58-2.3a29.8,29.8,0,0,1-.18-3.33C175,54.35,189.64,40.39,207.74,40.39Zm-66,31.17c19.16,0,35.31,12.23,40.32,28.93a38.12,38.12,0,0,1,1.6,11A39.13,39.13,0,0,1,168,142.56a42.79,42.79,0,0,1-20.27,8.38,44.51,44.51,0,0,1-12,0,42.78,42.78,0,0,1-20.27-8.38,39.13,39.13,0,0,1-15.67-31.1,38.12,38.12,0,0,1,1.6-11C106.42,83.79,122.57,71.56,141.73,71.56Zm-66-31.17c18.11,0,32.79,14,32.79,31.2a29.8,29.8,0,0,1-.18,3.33Q107,76,105.74,77.2A48.24,48.24,0,0,0,94.83,92.6a46.78,46.78,0,0,0-2.09,5.65,34.17,34.17,0,0,1-37.55-2.34A30.6,30.6,0,0,1,42.94,71.58C42.94,54.35,57.62,40.39,75.72,40.39Zm-58,98.88c2.93-19.78,13.62-35,29.93-40.74a39.63,39.63,0,0,0,12.58,8,41.87,41.87,0,0,0,30.86,0A46.37,46.37,0,0,0,96,132.74a48,48,0,0,0,4.23,6.76,60.39,60.39,0,0,0-17.75,11.17A68.73,68.73,0,0,0,68,169.7a22,22,0,0,0-1.63,3.53H12ZM60.24,243.08l7.34-43.63a79.4,79.4,0,0,1,7.9-25.19l.13-.25c6.74-12.68,17-22.21,30.21-26.86,0,0,0-.07,0-.07q1.36,1.29,2.82,2.47l.34.28.4.32.44.34.46.35.47.35a51.45,51.45,0,0,0,11,6.1l.15.06a51.35,51.35,0,0,0,5.67,1.91l.44.12.44.12.24.06.24.06.51.12s.08.09.12.1a34.33,34.33,0,0,0,7.64,1.26h0c1.49,0,3,.11,4.5.11s3-.1,4.5-.23l0,0a53.06,53.06,0,0,0,6.33-.93h0l1.42-.32,1.45-.37.82-.23.21-.06q1.13-.33,2.26-.71l1.39-.49,1.38-.53A50.89,50.89,0,0,0,177.62,147h0c13.25,4.68,23.6,14.19,30.34,27a80.86,80.86,0,0,1,7.9,25.44l7.34,43.63Zm156.93-69.84a28.72,28.72,0,0,0-1.74-3.79c-7.36-14-18.42-24.35-32.12-29.93a48.54,48.54,0,0,0,4.16-6.72,46.68,46.68,0,0,0,4.91-26.28,41.79,41.79,0,0,0,30.86-.05,39.8,39.8,0,0,0,12.58-8.05c16.31,5.75,27,21.08,29.93,40.86l5.74,34Z"/></svg>