<svg id="_Capa_" data-name="&lt;Capa&gt;" xmlns="http://www.w3.org/2000/svg" viewBox="0 0 283.46 283.46"><defs><style>.cls-1{fill:#bddf8b;}</style></defs><title>ICONOS</title><path class="cls-1" d="M264.37,230.5l.06-158.76a8.88,8.88,0,0,0-8.85-8.84h-112c-3.46-.08-6.15-6.44-6.15-8.88V53A9.46,9.46,0,0,0,128,43.57H68.43A9.44,9.44,0,0,0,59,53v1c0,2.47-2.73,8.92-6.27,8.92h.1a8.85,8.85,0,0,0-8.73,8.83l0,46h-19s-8.43-.46-5.45,9.58L39.77,230.5c0,5.2,3.62,9.39,8.82,9.39H260C265.23,239.89,264.37,230.5,264.37,230.5ZM253.52,131l-.11,103.63-20-111.08c-1.69-6.1-8.59-5.68-8.59-5.68H55.05V82.63H253.53V131Z"/></svg>