<svg id="_Capa_" data-name="&lt;Capa&gt;" xmlns="http://www.w3.org/2000/svg" viewBox="0 0 283.46 283.46"><defs><style>.cls-1{fill:#fff;}</style></defs><title>ICONOS</title><path class="cls-1" d="M150,23c-63.9,0-115.7,52-115.7,116.24S86.06,255.46,150,255.46s115.7-52,115.7-116.24S213.87,23,150,23Zm51.64,51.77V220H87.8V118.78l51.5-51.06h62.3Z"/><path class="cls-1" d="M135.32,165.8a.49.49,0,0,0,.46.31q2,0,5.51-3.65a11,11,0,0,0,3.49-7.67q0-3.57-3.72-6.05a11.8,11.8,0,0,0-6.05-1.86c-.62,0-.93.16-.93.47q-.16,3.42.78,16.9Z"/><path class="cls-1" d="M141.23,121.15l-46.39,0v91.8h99.73V74.76H141.12Zm21.7,13.32q10.71,7.14,10.7,20.79,0,15.82-15.82,20.62a45.5,45.5,0,0,1-15.66,1.55q1.24,4,4.65,14.42a13.67,13.67,0,0,1,.47,3.26q0,4.81-9,8.68Q128.5,208,125.4,208q-4.34,0-5.28-4.65-1.39-5.74-2.79-21.71-1.55-18.3-1.55-34.11,0-9.46.62-16.75.46-4.66,5.74-4.66a27.56,27.56,0,0,1,4,.39,28.11,28.11,0,0,0,3.1.38q12.71.63,13.18.62Q155.17,129.2,162.92,134.47Z"/></svg>