<svg id="_Capa_" data-name="&lt;Capa&gt;" xmlns="http://www.w3.org/2000/svg" viewBox="0 0 283.46 283.46"><defs><style>.cls-1{fill:#fff;}</style></defs><title>ICONOS</title><path class="cls-1" d="M198.44,107.06c0-10.56,0-21.11,0-31.67a3.75,3.75,0,0,0-1.12-2.31q-17.73-17.83-35.52-35.61a3.85,3.85,0,0,0-3-1.21q-35.86.05-71.73,0H85.15v71.92H198.34C198.38,107.73,198.44,107.39,198.44,107.06Z"/><path class="cls-1" d="M91.38,247.2H192V176.1H91.38ZM99.51,188H184v6.85H99.51Zm0,13.69H184v6.85H99.51Zm0,13.69H184v6.85H99.51Zm0,13.7H184v6.85H99.51Z"/><path class="cls-1" d="M244.19,121.88a17.4,17.4,0,0,0-5.19-4.95,20.65,20.65,0,0,0-10.36-2.34h-99.9q-37,0-74.07,0c-8.06,0-14.21,3.24-18,10.46a14.61,14.61,0,0,0-.91,2.22,25.63,25.63,0,0,0-1.23,8v46.4a26.38,26.38,0,0,0,1.71,9.51,15.64,15.64,0,0,0,.9,2,17.58,17.58,0,0,0,15.89,9.56c10.43.17,20.87.06,31.31.06h0a.62.62,0,0,0,.62-.62c0-8.19,0-16.34,0-24.48,0-5.37,2.63-7.95,8-8h97.35c5.47,0,8,2.61,8,8.11,0,8.05,0,16.1,0,24.25a.67.67,0,0,0,.62.66c.29,0,.58,0,.88,0h29.43A18.76,18.76,0,0,0,245.17,195a17.34,17.34,0,0,0,2.35-4.34,22,22,0,0,0,1.38-7.83V136.48A24.65,24.65,0,0,0,244.19,121.88Zm-24.12,38.55a14.18,14.18,0,1,1,14.18-14.18A14.18,14.18,0,0,1,220.07,160.43Z"/></svg>