<svg id="_Capa_" data-name="&lt;Capa&gt;" xmlns="http://www.w3.org/2000/svg" viewBox="0 0 283.46 283.46"><defs><style>.cls-1{fill:#fff;}</style></defs><title>ICONOS</title><path class="cls-1" d="M252.34,269.13a7.13,7.13,0,0,1-4.91-1.94L144.31,170.95,41.2,267.19c-2.08,2-7.6,2.46-10.24,1.35s-6.8-3.74-6.8-6.61V26c0-6.09,9.45-11.68,15.54-11.68H252.8c6.09,0,6.51,5.59,6.51,11.68V261.93a7.11,7.11,0,0,1-4.22,6.61A6.77,6.77,0,0,1,252.34,269.13Zm-108-115.23c1.76,0,2.78.65,4.15,1.94l95.16,89.52V30H39.83V245.36l97.74-89.52C139,154.55,142.56,153.9,144.31,153.9Z"/></svg>