<svg id="_Capa_" data-name="&lt;Capa&gt;" xmlns="http://www.w3.org/2000/svg" viewBox="0 0 283.46 283.46"><defs><style>.cls-1{fill:#b0afd0;}.cls-2{fill:#fff;}</style></defs><title>ICONOS</title><path class="cls-1" d="M258.8,99.17H18.31a5.12,5.12,0,0,0-5.12,5.12V115c1.06-.15,2.33.16,3.72,0-.31,0-.61,0-.91,0h0c.3,0,.6,0,.91,0v-9.43a2.59,2.59,0,0,1,5.18,0v33.59c0,25,178,45.23,203,45.23a45.23,45.23,0,0,0,45.23-45.23V110.64A11.48,11.48,0,0,0,258.8,99.17Z"/><path class="cls-2" d="M80.38,146.81a18.94,18.94,0,0,1-4.39-.45.53.53,0,0,1-.47-.49v-1.79a.47.47,0,0,1,.47-.47H76c1,.12,3.47.25,4.39.25,2.21,0,2.88-.79,2.88-2.23,0-1-.47-1.46-2.11-2.43l-3.27-2c-2.31-1.36-2.93-2.8-2.93-4.54C75,130,76.59,128,81.2,128a27.74,27.74,0,0,1,4.76.45.51.51,0,0,1,.45.47v1.84a.43.43,0,0,1-.42.45h0c-1.64-.15-3.27-.25-4.89-.25-1.84,0-2.6.65-2.6,1.76,0,.82.42,1.31,2,2.21l3,1.66c2.72,1.51,3.44,3.1,3.44,5.06C86.91,144.13,85.34,146.81,80.38,146.81Z"/><path class="cls-2" d="M100.32,146.46a23.33,23.33,0,0,1-4.71.35c-3.22,0-5.73-.87-5.73-5.08v-8.65c0-4.21,2.5-5.08,5.73-5.08a23.33,23.33,0,0,1,4.71.35c.37.05.5.17.5.52v1.59a.5.5,0,0,1-.5.49H95.26c-1.44,0-2,.5-2,2.13v2.68H100a.5.5,0,0,1,.5.49V138a.5.5,0,0,1-.5.49H93.3v3.2c0,1.64.52,2.13,2,2.13h5.06a.5.5,0,0,1,.5.5v1.59C100.82,146.29,100.7,146.42,100.32,146.46Z"/><path class="cls-2" d="M115.73,146.39a27.25,27.25,0,0,1-5.41.42c-2.68,0-6.64-1.76-6.64-7.61v-3.57c0-5.88,3.77-7.64,6.72-7.64a32.88,32.88,0,0,1,5.33.45c.32.08.47.2.47.52v1.66c0,.35-.1.52-.49.52h-.08c-1.14-.1-2.85-.2-5.23-.2-1.66,0-3.25,1.17-3.25,4.69v3.57c0,3.52,1.71,4.66,3.17,4.66.92,0,1.69,0,2.46-.07v-6.32a.48.48,0,0,1,.47-.5h2.45a.5.5,0,0,1,.49.5v8.33A.55.55,0,0,1,115.73,146.39Z"/><path class="cls-2" d="M126.61,146.81c-4,0-6.82-1.73-6.82-7V128.66a.48.48,0,0,1,.5-.47h2.45a.48.48,0,0,1,.5.47v11.13c0,2.83.69,4.17,3.37,4.17s3.37-1.34,3.37-4.17V128.66a.48.48,0,0,1,.5-.47h2.45a.48.48,0,0,1,.5.47v11.13C133.43,145.08,130.6,146.81,126.61,146.81Z"/><path class="cls-2" d="M140,146.61h-2.46a.5.5,0,0,1-.49-.5V128.66a.48.48,0,0,1,.49-.47H140a.48.48,0,0,1,.49.47v17.46A.5.5,0,0,1,140,146.61Z"/><path class="cls-2" d="M149.73,146.81a42,42,0,0,1-4.88-.3.68.68,0,0,1-.64-.77V129.06a.67.67,0,0,1,.64-.77,41.88,41.88,0,0,1,4.88-.3c5,0,7.79,2.68,7.79,7.59v3.65C157.51,144.13,154.68,146.81,149.73,146.81Zm4.37-11.23c0-3.72-1.89-4.69-4.37-4.69-.92,0-1.56,0-2.08.07v12.87c.52,0,1.17.07,2.08.07,2.48,0,4.37-1,4.37-4.69Z"/><path class="cls-2" d="M167.31,146.81c-4.09,0-7.07-2.28-7.07-7.74v-3.35c0-5.46,3-7.74,7.07-7.74s7.07,2.28,7.07,7.74v3.35C174.38,144.53,171.4,146.81,167.31,146.81Zm3.59-11.08c0-3.27-1.17-4.74-3.59-4.74s-3.59,1.46-3.59,4.74v3.35c0,3.27,1.17,4.74,3.59,4.74s3.59-1.46,3.59-4.74Z"/><path class="cls-2" d="M190.7,146.61h-3c-.27,0-.37-.25-.5-.5l-3.57-6.62h-.35c-.65,0-1.64-.08-2.21-.1v6.72a.48.48,0,0,1-.47.5H178.1a.5.5,0,0,1-.49-.5V129.06c0-.5.3-.67.79-.74a34,34,0,0,1,4.86-.32c3.82,0,7.14,1.36,7.14,5.6v.22a5,5,0,0,1-3.35,5.06l3.89,7.24a.35.35,0,0,1,0,.2A.27.27,0,0,1,190.7,146.61Zm-3.72-13c0-1.86-1.24-2.65-3.72-2.65-.52,0-1.76.05-2.21.1v5.58c.4,0,1.78.07,2.21.07,2.55,0,3.72-.69,3.72-2.88Z"/><path class="cls-2" d="M203.61,146.46a23.33,23.33,0,0,1-4.71.35c-3.22,0-5.73-.87-5.73-5.08v-8.65c0-4.21,2.5-5.08,5.73-5.08a23.33,23.33,0,0,1,4.71.35c.37.05.5.17.5.52v1.59a.5.5,0,0,1-.5.49h-5.06c-1.44,0-2,.5-2,2.13v2.68h6.72a.5.5,0,0,1,.5.49V138a.5.5,0,0,1-.5.49H196.6v3.2c0,1.64.52,2.13,2,2.13h5.06a.5.5,0,0,1,.5.5v1.59C204.11,146.29,204,146.42,203.61,146.46Z"/><path class="cls-2" d="M212.1,146.81a18.94,18.94,0,0,1-4.39-.45.53.53,0,0,1-.47-.49v-1.79a.47.47,0,0,1,.47-.47h.05c1,.12,3.47.25,4.39.25,2.21,0,2.88-.79,2.88-2.23,0-1-.47-1.46-2.11-2.43l-3.27-2c-2.3-1.36-2.93-2.8-2.93-4.54,0-2.73,1.59-4.71,6.2-4.71a27.74,27.74,0,0,1,4.76.45.5.5,0,0,1,.45.47v1.84a.42.42,0,0,1-.42.45h-.05c-1.64-.15-3.27-.25-4.88-.25-1.84,0-2.61.65-2.61,1.76,0,.82.42,1.31,2,2.21l3,1.66c2.73,1.51,3.45,3.1,3.45,5.06C218.62,144.13,217.06,146.81,212.1,146.81Z"/></svg>