<svg id="_Capa_" data-name="&lt;Capa&gt;" xmlns="http://www.w3.org/2000/svg" viewBox="0 0 283.46 283.46"><defs><style>.cls-1,.cls-2,.cls-3,.cls-7{fill:#b0afd0;}.cls-2{fill-rule:evenodd;}.cls-3,.cls-5,.cls-7{stroke:#fff;}.cls-3,.cls-4,.cls-5{stroke-miterlimit:10;}.cls-3,.cls-4,.cls-5,.cls-6,.cls-7{stroke-width:7.51px;}.cls-4,.cls-5{fill:none;}.cls-4,.cls-6{stroke:#192657;}.cls-6{fill:#fafbfc;}.cls-6,.cls-7{stroke-linecap:round;stroke-linejoin:round;}</style></defs><title>ICONOS</title><path class="cls-1" d="M243.26,45.71H239v-.08H21.23v.08H12.36v213h230.9a27.93,27.93,0,0,0,27.84-27.84V73.56A27.93,27.93,0,0,0,243.26,45.71ZM205.1,56.46a7.7,7.7,0,1,1-7.7,7.7A7.7,7.7,0,0,1,205.1,56.46Zm-29.63,0a7.7,7.7,0,1,1-7.7,7.7A7.7,7.7,0,0,1,175.47,56.46Zm-29.63,0a7.7,7.7,0,1,1-7.7,7.7A7.7,7.7,0,0,1,145.84,56.46Zm-29.63,0a7.7,7.7,0,1,1-7.7,7.7A7.7,7.7,0,0,1,116.22,56.46Zm-29.63,0a7.7,7.7,0,1,1-7.7,7.7A7.7,7.7,0,0,1,86.59,56.46ZM57,56.46a7.7,7.7,0,1,1-7.7,7.7A7.7,7.7,0,0,1,57,56.46Z"/><path class="cls-2" d="M61.32,61.94A4.36,4.36,0,0,1,57,66.3h0a4.36,4.36,0,0,1-4.36-4.36V29.13A4.36,4.36,0,0,1,57,24.77h0a4.36,4.36,0,0,1,4.36,4.36Z"/><path class="cls-2" d="M90.94,61.94a4.36,4.36,0,0,1-4.36,4.36h0a4.36,4.36,0,0,1-4.36-4.36V29.13a4.36,4.36,0,0,1,4.36-4.36h0a4.36,4.36,0,0,1,4.36,4.36Z"/><path class="cls-2" d="M120.57,61.94a4.36,4.36,0,0,1-4.36,4.36h0a4.36,4.36,0,0,1-4.36-4.36V29.13a4.36,4.36,0,0,1,4.36-4.36h0a4.36,4.36,0,0,1,4.36,4.36Z"/><path class="cls-2" d="M150.2,61.94a4.36,4.36,0,0,1-4.36,4.36h0a4.36,4.36,0,0,1-4.36-4.36V29.13a4.36,4.36,0,0,1,4.36-4.36h0a4.36,4.36,0,0,1,4.36,4.36Z"/><path class="cls-2" d="M179.83,61.94a4.36,4.36,0,0,1-4.36,4.36h0a4.36,4.36,0,0,1-4.36-4.36V29.13a4.36,4.36,0,0,1,4.36-4.36h0a4.36,4.36,0,0,1,4.36,4.36Z"/><path class="cls-2" d="M209.46,61.94a4.36,4.36,0,0,1-4.36,4.36h0a4.36,4.36,0,0,1-4.36-4.36V29.13a4.36,4.36,0,0,1,4.36-4.36h0a4.36,4.36,0,0,1,4.36,4.36Z"/><path class="cls-3" d="M156,191.08l22.91-41.85A39.09,39.09,0,0,0,183,123h0a39.1,39.1,0,0,0-38.38-31.64h-5.79A39.1,39.1,0,0,0,100.46,123h0a39.09,39.09,0,0,0,4.08,26.22l22.91,41.85Z"/><line class="cls-4" x1="141.73" y1="201.03" x2="141.73" y2="201"/><path class="cls-5" d="M136.22,201V143.4a7.05,7.05,0,0,0-7.05-7.05h0a7.05,7.05,0,0,0-7.05,7.05v1.1a7.05,7.05,0,0,0,7.05,7.05h19.11"/><path class="cls-5" d="M147.25,201V143.4a7.05,7.05,0,0,1,7.05-7.05h0a7.05,7.05,0,0,1,7.05,7.05v1.1a7.05,7.05,0,0,1-7.05,7.05H135.19"/><path class="cls-6" d="M150.81,203.87H132.65a7,7,0,0,1-7-7h0a7,7,0,0,1,7-7h18.16a7,7,0,0,1,7,7h0A7,7,0,0,1,150.81,203.87Z"/><path class="cls-7" d="M150.81,190H132.65a7,7,0,0,0-7,7h0a7,7,0,0,0,7,7h18.16a7,7,0,0,0,7-7h0A7,7,0,0,0,150.81,190Z"/><path class="cls-7" d="M150.81,203.87H132.65a7,7,0,0,0-7,7h0a7,7,0,0,0,7,7h18.16a7,7,0,0,0,7-7h0A7,7,0,0,0,150.81,203.87Z"/></svg>