<?xml version="1.0" encoding="iso-8859-1"?>
<!-- Generator: Adobe Illustrator 16.0.0, SVG Export Plug-In . SVG Version: 6.00 Build 0)  -->
<!DOCTYPE svg PUBLIC "-//W3C//DTD SVG 1.1//EN" "http://www.w3.org/Graphics/SVG/1.1/DTD/svg11.dtd">
<svg version="1.1" id="Capa_1" xmlns="http://www.w3.org/2000/svg" xmlns:xlink="http://www.w3.org/1999/xlink" x="0px" y="0px"
	 width="478.125px" height="478.125px" viewBox="0 0 478.125 478.125" style="enable-background:new 0 0 478.125 478.125;"
	 xml:space="preserve">
<g>
	<g>
		<rect x="38.25" y="334.688" width="133.875" height="19.125"/>
		<path d="M382.5,9.562H95.625L0,162.562v9.562v296.438h478.125V172.125v-9.562L382.5,9.562z M371.025,28.688l84.149,133.875h-168.3
			L267.75,28.688H371.025z M248.625,28.688l19.125,133.875h-57.375L229.5,28.688H248.625z M267.75,181.688v114.75h-57.375v-114.75
			H267.75z M107.1,28.688h103.275L191.25,162.562H22.95L107.1,28.688z M459,449.438H19.125v-267.75H191.25v133.875h95.625V181.688
			H459V449.438z"/>
		<rect x="38.25" y="372.938" width="95.625" height="19.125"/>
		<rect x="38.25" y="411.188" width="133.875" height="19.125"/>
	</g>
</g>
<g>
</g>
<g>
</g>
<g>
</g>
<g>
</g>
<g>
</g>
<g>
</g>
<g>
</g>
<g>
</g>
<g>
</g>
<g>
</g>
<g>
</g>
<g>
</g>
<g>
</g>
<g>
</g>
<g>
</g>
</svg>
