<?xml version="1.0" encoding="iso-8859-1"?>
<!-- Generator: Adobe Illustrator 19.0.0, SVG Export Plug-In . SVG Version: 6.00 Build 0)  -->
<svg version="1.1" id="Capa_1" xmlns="http://www.w3.org/2000/svg" xmlns:xlink="http://www.w3.org/1999/xlink" x="0px" y="0px"
	 viewBox="0 0 512 512" style="enable-background:new 0 0 512 512;" xml:space="preserve">
<g>
	<g>
		<path d="M481,206.522V95.234l-110.167,41.968c-1.462-35.104-12.774-67.976-32.233-93.272C316.809,15.602,287.474,0,256,0
			s-60.809,15.602-82.6,43.931c-19.459,25.296-30.771,58.168-32.233,93.272L31,95.234v111.288C12.666,215.452,0,234.273,0,256
			s12.666,40.548,31,49.478v121.814L250.614,512h10.771L481,427.292V305.478c18.334-8.93,31-27.751,31-49.478
			S499.334,215.452,481,206.522z M30,256c0-13.785,11.215-25,25-25c13.785,0,25,11.215,25,25c0,13.785-11.215,25-25,25
			C41.215,281,30,269.785,30,256z M241,476.137L61,406.708v-96.041c27.514-3,49-26.367,49-54.667s-21.486-51.667-49-54.667v-62.568
			l180,68.572V476.137z M256,180.948l-84.956-32.364C171.017,147.388,171,146.193,171,145c0-63.411,38.131-115,85-115
			s85,51.589,85,115c0,1.193-0.017,2.389-0.045,3.584L256,180.948z M451,406.709l-180,69.428v-268.8l180-68.572v62.568
			c-27.514,3-49,26.367-49,54.667s21.486,51.667,49,54.667V406.709z M457,281c-13.785,0-25-11.215-25-25c0-13.785,11.215-25,25-25
			c13.785,0,25,11.215,25,25C482,269.785,470.785,281,457,281z"/>
	</g>
</g>
<g>
</g>
<g>
</g>
<g>
</g>
<g>
</g>
<g>
</g>
<g>
</g>
<g>
</g>
<g>
</g>
<g>
</g>
<g>
</g>
<g>
</g>
<g>
</g>
<g>
</g>
<g>
</g>
<g>
</g>
</svg>
