<?xml version="1.0" standalone="no"?>
<!DOCTYPE svg PUBLIC "-//W3C//DTD SVG 20010904//EN"
 "http://www.w3.org/TR/2001/REC-SVG-20010904/DTD/svg10.dtd">
<svg version="1.0" xmlns="http://www.w3.org/2000/svg"
 width="1600.000000pt" height="1600.000000pt" viewBox="0 0 1600.000000 1600.000000"
 preserveAspectRatio="xMidYMid meet">
<metadata>
Created by potrace 1.15, written by Peter Selinger 2001-2017
</metadata>
<g transform="translate(0.000000,1600.000000) scale(0.100000,-0.100000)"
fill="#000000" stroke="none">
<path d="M7640 13994 c-1342 -92 -2536 -579 -3557 -1449 -257 -219 -598 -577
-816 -858 -641 -823 -1061 -1804 -1206 -2817 -50 -348 -55 -436 -55 -870 0
-434 5 -522 55 -870 69 -480 212 -996 399 -1442 822 -1947 2599 -3327 4675
-3628 488 -70 1058 -80 1540 -25 1955 223 3673 1389 4615 3133 405 749 641
1577 701 2457 15 222 6 749 -15 955 -116 1080 -471 2027 -1084 2892 -946 1334
-2419 2238 -4022 2467 -314 45 -427 53 -805 56 -203 1 -395 1 -425 -1z m830
-1020 c1412 -135 2681 -844 3525 -1969 571 -761 902 -1634 986 -2600 16 -180
16 -630 0 -810 -105 -1204 -607 -2291 -1446 -3130 -839 -839 -1928 -1342
-3130 -1446 -180 -16 -630 -16 -810 0 -1082 93 -2078 512 -2880 1212 -1315
1147 -1932 2885 -1639 4618 261 1546 1257 2899 2652 3605 651 329 1301 498
2072 540 122 7 515 -5 670 -20z"/>
</g>
</svg>
