<?xml version="1.0" standalone="no"?>
<!DOCTYPE svg PUBLIC "-//W3C//DTD SVG 20010904//EN"
 "http://www.w3.org/TR/2001/REC-SVG-20010904/DTD/svg10.dtd">
<svg version="1.0" xmlns="http://www.w3.org/2000/svg"
 width="1600.000000pt" height="1600.000000pt" viewBox="0 0 1600.000000 1600.000000"
 preserveAspectRatio="xMidYMid meet">
<metadata>
Created by potrace 1.15, written by Peter Selinger 2001-2017
</metadata>
<g transform="translate(0.000000,1600.000000) scale(0.100000,-0.100000)"
fill="#000000" stroke="none">
<path d="M1014 14775 c-471 -83 -848 -423 -973 -878 -71 -257 -49 -559 59
-809 92 -213 295 -444 488 -554 l32 -18 0 -4396 0 -4395 -48 -27 c-26 -15 -84
-57 -130 -93 -428 -345 -564 -954 -326 -1460 107 -229 312 -440 540 -557 183
-94 343 -132 554 -132 263 0 479 67 698 216 104 71 245 216 312 321 l55 86
5602 0 5601 1 56 -84 c178 -268 446 -449 766 -519 127 -27 357 -29 480 -3 486
104 852 466 956 948 24 112 29 304 10 426 -26 173 -100 360 -197 503 -84 124
-233 268 -352 340 l-56 34 -1 4396 0 4396 78 48 c95 60 271 234 334 330 89
138 143 263 180 418 28 121 31 392 5 505 -86 375 -319 678 -645 841 -484 242
-1057 142 -1428 -251 -44 -47 -102 -119 -130 -161 l-49 -76 -5606 -1 -5606 0
-51 78 c-157 241 -422 430 -707 503 -101 26 -143 31 -270 35 -101 2 -176 -1
-231 -11z m12522 -1872 c73 -114 223 -264 337 -337 l87 -57 0 -4388 0 -4388
-77 -50 c-139 -91 -266 -217 -352 -350 l-46 -72 -5605 -1 -5605 0 -55 82 c-73
111 -224 262 -332 332 l-88 57 0 4392 0 4392 43 24 c138 78 290 226 380 368
l52 82 5602 1 5602 0 57 -87z"/>
</g>
</svg>
