<?xml version="1.0" standalone="no"?>
<!DOCTYPE svg PUBLIC "-//W3C//DTD SVG 20010904//EN"
 "http://www.w3.org/TR/2001/REC-SVG-20010904/DTD/svg10.dtd">
<svg version="1.0" xmlns="http://www.w3.org/2000/svg"
 width="1600.000000pt" height="1600.000000pt" viewBox="0 0 1600.000000 1600.000000"
 preserveAspectRatio="xMidYMid meet">
<metadata>
Created by potrace 1.15, written by Peter Selinger 2001-2017
</metadata>
<g transform="translate(0.000000,1600.000000) scale(0.100000,-0.100000)"
fill="#000000" stroke="none">
<path d="M400 14200 l0 -1400 600 0 600 0 0 -4800 0 -4800 -600 0 -600 0 0
-1400 0 -1400 1400 0 1400 0 0 600 0 600 4800 0 4800 0 0 -600 0 -600 1400 0
1400 0 0 1400 0 1400 -600 0 -600 0 0 4800 0 4800 600 0 600 0 0 1400 0 1400
-1400 0 -1400 0 0 -600 0 -600 -4800 0 -4800 0 0 600 0 600 -1400 0 -1400 0 0
-1400z m2400 0 l0 -1000 -1000 0 -1000 0 0 1000 0 1000 1000 0 1000 0 0 -1000z
m12400 0 l0 -1000 -1000 0 -1000 0 0 1000 0 1000 1000 0 1000 0 0 -1000z
m-2400 -800 l0 -600 600 0 600 0 0 -4800 0 -4800 -600 0 -600 0 0 -600 0 -600
-4800 0 -4800 0 0 600 0 600 -600 0 -600 0 0 4800 0 4800 600 0 600 0 0 600 0
600 4800 0 4800 0 0 -600z m-10000 -11600 l0 -1000 -1000 0 -1000 0 0 1000 0
1000 1000 0 1000 0 0 -1000z m12400 0 l0 -1000 -1000 0 -1000 0 0 1000 0 1000
1000 0 1000 0 0 -1000z"/>
<path d="M4400 10800 l0 -1200 403 0 403 0 180 600 179 600 818 0 817 0 0
-2704 0 -2704 -597 -199 -598 -200 -3 -496 -2 -497 2000 0 2000 0 -2 497 -3
496 -597 200 -598 199 0 2704 0 2704 818 0 817 0 179 -600 180 -600 403 0 403
0 0 1200 0 1200 -3600 0 -3600 0 0 -1200z m6800 0 l0 -800 -53 0 -53 0 -180
600 -179 600 -1168 0 -1167 0 2 -3052 3 -3051 598 -200 597 -199 0 -149 0
-149 -1600 0 -1600 0 0 149 0 149 598 199 597 200 3 3051 2 3052 -1167 0
-1168 0 -179 -600 -180 -600 -53 0 -53 0 0 800 0 800 3200 0 3200 0 0 -800z"/>
</g>
</svg>
