<?xml version="1.0" standalone="no"?>
<!DOCTYPE svg PUBLIC "-//W3C//DTD SVG 20010904//EN"
 "http://www.w3.org/TR/2001/REC-SVG-20010904/DTD/svg10.dtd">
<svg version="1.0" xmlns="http://www.w3.org/2000/svg"
 width="1600.000000pt" height="1600.000000pt" viewBox="0 0 1600.000000 1600.000000"
 preserveAspectRatio="xMidYMid meet">
<metadata>
Created by potrace 1.15, written by Peter Selinger 2001-2017
</metadata>
<g transform="translate(0.000000,1600.000000) scale(0.100000,-0.100000)"
fill="#000000" stroke="none">
<path d="M7857 15329 c-313 -34 -595 -174 -818 -405 -104 -109 -165 -193 -230
-321 -97 -190 -142 -381 -142 -603 1 -202 35 -363 118 -552 l43 -98 -2747
-4672 -2748 -4673 -106 -8 c-200 -14 -425 -87 -593 -193 -302 -190 -507 -469
-596 -814 -39 -149 -49 -380 -24 -532 45 -273 169 -519 363 -719 197 -203 431
-330 710 -386 123 -24 377 -24 493 0 351 74 663 283 851 568 l52 79 5517 0
5517 0 52 -79 c188 -285 500 -494 851 -568 116 -24 370 -24 493 0 277 55 514
184 710 386 247 255 377 574 377 926 0 470 -232 887 -634 1139 -168 106 -393
179 -593 193 l-106 8 -2748 4673 -2747 4672 43 98 c83 189 117 350 118 552 0
371 -136 693 -401 952 -115 112 -197 172 -329 239 -223 114 -500 165 -746 138z
m2893 -7334 l2740 -4650 -2745 -3 c-1510 -1 -3980 -1 -5490 0 l-2745 3 2742
4653 c1508 2559 2745 4651 2750 4650 4 -2 1241 -2095 2748 -4653z"/>
</g>
</svg>
