<?xml version="1.0" standalone="no"?>
<!DOCTYPE svg PUBLIC "-//W3C//DTD SVG 20010904//EN"
 "http://www.w3.org/TR/2001/REC-SVG-20010904/DTD/svg10.dtd">
<svg version="1.0" xmlns="http://www.w3.org/2000/svg"
 width="512.000000pt" height="512.000000pt" viewBox="0 0 512.000000 512.000000"
 preserveAspectRatio="xMidYMid meet">
<metadata>
Created by potrace 1.15, written by Peter Selinger 2001-2017
</metadata>
<g transform="translate(0.000000,512.000000) scale(0.100000,-0.100000)"
fill="#000000" stroke="none">
<path d="M2340 4606 c-26 -6 -62 -22 -80 -33 -19 -12 -231 -219 -471 -460
-301 -301 -444 -452 -459 -483 -52 -102 -30 -236 51 -320 58 -60 118 -84 204
-84 114 0 141 17 357 231 l188 187 0 -815 c0 -911 -3 -869 70 -952 55 -62 125
-92 215 -91 41 0 85 7 107 17 56 24 123 91 149 150 l24 52 3 814 3 814 184
-182 c209 -207 237 -224 350 -225 113 -1 196 46 253 144 24 40 27 55 27 135 0
73 -4 97 -22 130 -22 41 -896 919 -943 947 -26 16 -117 39 -148 37 -9 0 -37
-6 -62 -13z"/>
<path d="M1010 1581 c-79 -24 -141 -80 -177 -159 -20 -42 -24 -68 -24 -132 2
-292 187 -540 476 -638 l80 -27 1035 0 c834 0 1046 3 1090 13 30 8 97 34 149
59 79 38 108 59 177 127 68 68 90 99 127 177 123 253 91 473 -80 559 -102 51
-231 35 -316 -41 -55 -48 -86 -108 -97 -189 -5 -34 -16 -73 -25 -87 -36 -54
-8 -53 -1003 -53 -506 0 -934 3 -951 6 -54 11 -89 55 -96 122 -14 121 -82 214
-182 252 -54 20 -136 25 -183 11z"/>
</g>
</svg>
